<svg class="svg-icon" style="width: 1em; height: 1em;vertical-align: middle;fill: white;overflow: hidden;" viewproducto="0 0 1024 1024" version="1.1" xmlns="http://www.w3.org/2000/svg"><path d="M512 290.87a142 142 0 1 0 142 142 142 142 0 0 0-142-142z m0 204a62 62 0 1 1 62-62 62 62 0 0 1-62 62z" fill="white" /><path d="M512 128.05c-168.45 0-305 136.56-305 305S512 896 512 896s305-294.5 305-462.95-136.55-305-305-305zM287 429.82c0-124.27 100.74-225 225-225s225 100.73 225 225S512 773 512 773 287 554.08 287 429.82z" fill="white" /></svg>