<?xml version="1.0" standalone="no"?>
<!DOCTYPE svg PUBLIC "-//W3C//DTD SVG 20010904//EN"
 "http://www.w3.org/TR/2001/REC-SVG-20010904/DTD/svg10.dtd">
<svg version="1.0" xmlns="http://www.w3.org/2000/svg"
 width="45.000000pt" height="50.000000pt" viewproducto="0 0 45.000000 50.000000"
 preserveAspectRatio="xMidYMid meet">

<g transform="translate(0.000000,50.000000) scale(0.100000,-0.100000)"
fill="#333333" stroke="none">
<path d="M126 440 c-81 -25 -120 -125 -76 -198 38 -62 114 -88 175 -60 24 11
30 8 83 -45 45 -45 60 -55 70 -45 19 19 15 29 -40 83 l-53 50 15 42 c13 39 12
46 -6 90 -15 39 -28 52 -64 71 -47 24 -59 25 -104 12z m117 -70 c30 -34 34
-67 12 -110 -46 -89 -185 -54 -185 47 0 95 108 135 173 63z"/>
</g>
</svg>
